<?xml version="1.0"?>
<svg version="1.1" xmlns="http://www.w3.org/2000/svg" xmlns:xlink="http://www.w3.org/1999/xlink" width="1024" height="1024">
    <desc iVinci="yes" version="4.5" gridStep="20" showGrid="no" snapToGrid="no" codePlatform="0"/>
    <g id="Layer1" opacity="1">
        <g id="Shape1">
            <desc shapeID="1" type="0" basicInfo-basicType="0" basicInfo-roundedRectRadius="12" basicInfo-polygonSides="6" basicInfo-starPoints="5" bounding="rect(-8.08822,-9.52511,16.1765,19.0502)" text="" font-familyName="" font-pixelSize="20" font-bold="0" font-underline="0" font-alignment="1" strokeStyle="0" markerStart="0" markerEnd="0" shadowEnabled="0" shadowOffsetX="0" shadowOffsetY="2" shadowBlur="4" shadowOpacity="160" blurEnabled="0" blurRadius="4" transform="matrix(43.5721,0,0,43.5717,512,512.001)" pers-center="0,0" pers-size="0,0" pers-start="0,0" pers-end="0,0" locked="0" mesh="" flag=""/>
            <path id="shapePath1" d="M862.197,883.102 L807.732,278.715 C806.249,262.157 792.262,249.434 775.706,249.434 L684.202,249.434 C672.964,163.685 600.11,96.9757 511.352,96.9757 C422.511,96.9757 349.701,163.685 338.503,249.434 L247.133,249.434 C230.531,249.434 216.632,262.114 215.107,278.715 L159.727,891.947 C158.855,900.925 161.862,909.856 168.006,916.524 C174.018,923.146 182.733,927.024 191.752,927.024 L830.955,927.024 C831.478,926.938 831.826,926.938 832.263,927.024 C850.039,927.024 864.421,912.6 864.421,894.866 C864.421,890.726 863.633,886.762 862.197,883.102 M511.352,161.288 C564.729,161.288 609.392,199.196 619.846,249.434 L402.859,249.434 C413.314,199.196 457.978,161.288 511.352,161.288 M226.915,862.708 L276.544,313.703 L746.337,313.703 L795.793,862.708 L226.915,862.708 Z" style="stroke:#323232;stroke-opacity:1;stroke-width:1;stroke-linejoin:miter;stroke-miterlimit:2;stroke-linecap:round;fill-rule:evenodd;fill:#000000;fill-opacity:1;"/>
        </g>
        <g id="Shape2">
            <desc shapeID="2" type="0" basicInfo-basicType="0" basicInfo-roundedRectRadius="12" basicInfo-polygonSides="6" basicInfo-starPoints="5" bounding="rect(-2,-2,4.00002,4.00002)" text="" font-familyName="" font-pixelSize="20" font-bold="0" font-underline="0" font-alignment="1" strokeStyle="0" markerStart="0" markerEnd="0" shadowEnabled="0" shadowOffsetX="0" shadowOffsetY="2" shadowBlur="4" shadowOpacity="160" blurEnabled="0" blurRadius="4" transform="matrix(16.1705,0,0,16.1705,414.976,728.813)" pers-center="0,0" pers-size="0,0" pers-start="0,0" pers-end="0,0" locked="0" mesh="" flag=""/>
            <path id="shapePath2" d="M415.009,696.472 C397.108,696.472 382.603,710.98 382.635,728.831 C382.635,746.683 397.124,761.187 415.009,761.154 C432.845,761.187 447.35,746.698 447.317,728.831 C447.35,710.929 432.845,696.44 415.009,696.472 Z" style="stroke:#323232;stroke-opacity:1;stroke-width:1;stroke-linejoin:miter;stroke-miterlimit:2;stroke-linecap:round;fill-rule:evenodd;fill:#000000;fill-opacity:1;"/>
        </g>
        <g id="Shape3">
            <desc shapeID="3" type="0" basicInfo-basicType="0" basicInfo-roundedRectRadius="12" basicInfo-polygonSides="6" basicInfo-starPoints="5" bounding="rect(-8.00005,-8.00002,16.0001,16)" text="" font-familyName="" font-pixelSize="20" font-bold="0" font-underline="0" font-alignment="1" strokeStyle="0" markerStart="0" markerEnd="0" shadowEnabled="0" shadowOffsetX="0" shadowOffsetY="2" shadowBlur="4" shadowOpacity="160" blurEnabled="0" blurRadius="4" transform="matrix(16.1705,0,0,16.1705,512,631.808)" pers-center="0,0" pers-size="0,0" pers-start="0,0" pers-end="0,0" locked="0" mesh="" flag=""/>
            <path id="shapePath3" d="M414.976,502.444 C397.124,502.444 382.635,516.934 382.635,534.785 C382.635,552.637 397.124,567.126 414.976,567.126 C504.14,567.126 576.682,639.665 576.682,728.831 C576.682,746.683 591.168,761.172 609.023,761.172 C626.875,761.172 641.364,746.683 641.364,728.831 C641.364,603.994 539.811,502.444 414.976,502.444 Z" style="stroke:#323232;stroke-opacity:1;stroke-width:1;stroke-linejoin:miter;stroke-miterlimit:2;stroke-linecap:round;fill-rule:evenodd;fill:#000000;fill-opacity:1;"/>
        </g>
        <g id="Shape4">
            <desc shapeID="4" type="0" basicInfo-basicType="0" basicInfo-roundedRectRadius="12" basicInfo-polygonSides="6" basicInfo-starPoints="5" bounding="rect(-5.00004,-5.00001,10.0001,10)" text="" font-familyName="" font-pixelSize="20" font-bold="0" font-underline="0" font-alignment="1" strokeStyle="0" markerStart="0" markerEnd="0" shadowEnabled="0" shadowOffsetX="0" shadowOffsetY="2" shadowBlur="4" shadowOpacity="160" blurEnabled="0" blurRadius="4" transform="matrix(16.1705,0,0,16.1705,463.488,680.32)" pers-center="0,0" pers-size="0,0" pers-start="0,0" pers-end="0,0" locked="0" mesh="" flag=""/>
            <path id="shapePath4" d="M414.976,599.467 C397.124,599.467 382.635,613.956 382.635,631.808 C382.635,649.66 397.124,664.149 414.976,664.149 C450.632,664.149 479.658,693.16 479.658,728.831 C479.658,746.683 494.149,761.172 512,761.172 C529.852,761.172 544.341,746.683 544.341,728.831 C544.341,657.503 486.306,599.467 414.976,599.467 Z" style="stroke:#323232;stroke-opacity:1;stroke-width:1;stroke-linejoin:miter;stroke-miterlimit:2;stroke-linecap:round;fill-rule:evenodd;fill:#000000;fill-opacity:1;"/>
        </g>
    </g>
</svg>
